<mxfile host="app.diagrams.net" modified="2022-10-26T18:34:57.575Z" agent="5.0 (Windows NT 10.0; Win64; x64) AppleWebKit/537.36 (KHTML, like Gecko) Chrome/106.0.0.0 Safari/537.36 Edg/106.0.1370.52" etag="E8uXhctri1SkH6ujLCKq" version="20.3.7" type="github">
  <diagram id="ofZayC9jcDpaddBzQyBw" name="StrÃ¡nka-1">
    <mxGraphModel dx="802" dy="2207" grid="1" gridSize="10" guides="1" tooltips="1" connect="1" arrows="1" fold="1" page="1" pageScale="1" pageWidth="827" pageHeight="1169" math="0" shadow="0">
      <root>
        <mxCell id="0" />
        <mxCell id="1" parent="0" />
        <mxCell id="LKD8e9Pqn8Nr4o17IV5Q-1" value="" style="rounded=0;whiteSpace=wrap;html=1;" vertex="1" parent="1">
          <mxGeometry x="95" y="-20" width="650" height="120" as="geometry" />
        </mxCell>
        <mxCell id="LKD8e9Pqn8Nr4o17IV5Q-22" style="edgeStyle=orthogonalEdgeStyle;rounded=0;orthogonalLoop=1;jettySize=auto;html=1;exitX=0.5;exitY=0;exitDx=0;exitDy=0;endArrow=none;endFill=0;" edge="1" parent="1" source="LKD8e9Pqn8Nr4o17IV5Q-2">
          <mxGeometry relative="1" as="geometry">
            <mxPoint x="330" y="260" as="targetPoint" />
            <Array as="points">
              <mxPoint x="210" y="390" />
              <mxPoint x="210" y="390" />
            </Array>
          </mxGeometry>
        </mxCell>
        <mxCell id="LKD8e9Pqn8Nr4o17IV5Q-2" value="" style="ellipse;whiteSpace=wrap;html=1;aspect=fixed;" vertex="1" parent="1">
          <mxGeometry x="200" y="410" width="20" height="20" as="geometry" />
        </mxCell>
        <mxCell id="LKD8e9Pqn8Nr4o17IV5Q-3" value="" style="ellipse;whiteSpace=wrap;html=1;aspect=fixed;" vertex="1" parent="1">
          <mxGeometry x="230" y="410" width="20" height="20" as="geometry" />
        </mxCell>
        <mxCell id="LKD8e9Pqn8Nr4o17IV5Q-4" value="" style="ellipse;whiteSpace=wrap;html=1;aspect=fixed;" vertex="1" parent="1">
          <mxGeometry x="260" y="410" width="20" height="20" as="geometry" />
        </mxCell>
        <mxCell id="LKD8e9Pqn8Nr4o17IV5Q-5" value="" style="ellipse;whiteSpace=wrap;html=1;aspect=fixed;" vertex="1" parent="1">
          <mxGeometry x="290" y="410" width="20" height="20" as="geometry" />
        </mxCell>
        <mxCell id="LKD8e9Pqn8Nr4o17IV5Q-23" style="edgeStyle=orthogonalEdgeStyle;rounded=0;orthogonalLoop=1;jettySize=auto;html=1;endArrow=none;endFill=0;" edge="1" parent="1" source="LKD8e9Pqn8Nr4o17IV5Q-6">
          <mxGeometry relative="1" as="geometry">
            <mxPoint x="330" y="260" as="targetPoint" />
          </mxGeometry>
        </mxCell>
        <mxCell id="LKD8e9Pqn8Nr4o17IV5Q-6" value="" style="ellipse;whiteSpace=wrap;html=1;aspect=fixed;" vertex="1" parent="1">
          <mxGeometry x="320" y="410" width="20" height="20" as="geometry" />
        </mxCell>
        <mxCell id="LKD8e9Pqn8Nr4o17IV5Q-7" value="" style="ellipse;whiteSpace=wrap;html=1;aspect=fixed;" vertex="1" parent="1">
          <mxGeometry x="350" y="410" width="20" height="20" as="geometry" />
        </mxCell>
        <mxCell id="LKD8e9Pqn8Nr4o17IV5Q-8" value="" style="ellipse;whiteSpace=wrap;html=1;aspect=fixed;" vertex="1" parent="1">
          <mxGeometry x="380" y="410" width="20" height="20" as="geometry" />
        </mxCell>
        <mxCell id="LKD8e9Pqn8Nr4o17IV5Q-9" value="" style="ellipse;whiteSpace=wrap;html=1;aspect=fixed;" vertex="1" parent="1">
          <mxGeometry x="410" y="410" width="20" height="20" as="geometry" />
        </mxCell>
        <mxCell id="LKD8e9Pqn8Nr4o17IV5Q-10" value="" style="ellipse;whiteSpace=wrap;html=1;aspect=fixed;" vertex="1" parent="1">
          <mxGeometry x="440" y="410" width="20" height="20" as="geometry" />
        </mxCell>
        <mxCell id="LKD8e9Pqn8Nr4o17IV5Q-11" value="" style="ellipse;whiteSpace=wrap;html=1;aspect=fixed;" vertex="1" parent="1">
          <mxGeometry x="470" y="410" width="20" height="20" as="geometry" />
        </mxCell>
        <mxCell id="LKD8e9Pqn8Nr4o17IV5Q-12" value="" style="ellipse;whiteSpace=wrap;html=1;aspect=fixed;" vertex="1" parent="1">
          <mxGeometry x="500" y="410" width="20" height="20" as="geometry" />
        </mxCell>
        <mxCell id="LKD8e9Pqn8Nr4o17IV5Q-13" value="" style="ellipse;whiteSpace=wrap;html=1;aspect=fixed;" vertex="1" parent="1">
          <mxGeometry x="530" y="410" width="20" height="20" as="geometry" />
        </mxCell>
        <mxCell id="LKD8e9Pqn8Nr4o17IV5Q-14" value="" style="ellipse;whiteSpace=wrap;html=1;aspect=fixed;" vertex="1" parent="1">
          <mxGeometry x="560" y="410" width="20" height="20" as="geometry" />
        </mxCell>
        <mxCell id="LKD8e9Pqn8Nr4o17IV5Q-15" value="" style="ellipse;whiteSpace=wrap;html=1;aspect=fixed;" vertex="1" parent="1">
          <mxGeometry x="590" y="410" width="20" height="20" as="geometry" />
        </mxCell>
        <mxCell id="LKD8e9Pqn8Nr4o17IV5Q-16" value="" style="ellipse;whiteSpace=wrap;html=1;aspect=fixed;" vertex="1" parent="1">
          <mxGeometry x="620" y="410" width="20" height="20" as="geometry" />
        </mxCell>
        <mxCell id="LKD8e9Pqn8Nr4o17IV5Q-17" value="" style="ellipse;whiteSpace=wrap;html=1;aspect=fixed;" vertex="1" parent="1">
          <mxGeometry x="650" y="410" width="20" height="20" as="geometry" />
        </mxCell>
        <mxCell id="LKD8e9Pqn8Nr4o17IV5Q-18" value="Tester side" style="text;html=1;align=center;verticalAlign=middle;resizable=0;points=[];autosize=1;strokeColor=none;fillColor=none;" vertex="1" parent="1">
          <mxGeometry x="380" y="450" width="80" height="30" as="geometry" />
        </mxCell>
        <mxCell id="LKD8e9Pqn8Nr4o17IV5Q-19" value="DUT" style="text;html=1;align=center;verticalAlign=middle;resizable=0;points=[];autosize=1;strokeColor=none;fillColor=none;" vertex="1" parent="1">
          <mxGeometry x="413" y="285" width="50" height="30" as="geometry" />
        </mxCell>
        <mxCell id="LKD8e9Pqn8Nr4o17IV5Q-21" value="" style="endArrow=none;html=1;rounded=0;" edge="1" parent="1">
          <mxGeometry width="50" height="50" relative="1" as="geometry">
            <mxPoint x="320" y="570" as="sourcePoint" />
            <mxPoint x="370" y="520" as="targetPoint" />
          </mxGeometry>
        </mxCell>
      </root>
    </mxGraphModel>
  </diagram>
</mxfile>
